<svg width="380" height="380" viewBox="0 0 380 380" fill="none" xmlns="http://www.w3.org/2000/svg">
<path d="M158.333 348.333V221.667M158.333 221.667L35.625 144.875M158.333 221.667L344.692 112.892M334.4 101.333L238.608 37.05C233.565 33.6248 227.641 31.7281 221.546 31.5877C215.451 31.4472 209.446 33.069 204.25 36.2583L46.7083 133.158C42.1154 135.991 38.3226 139.951 35.6901 144.662C33.0576 149.373 31.6726 154.679 31.6667 160.075V252.225C31.6588 257.412 32.9254 262.522 35.3549 267.105C37.7844 271.688 41.3025 275.604 45.6 278.508L141.392 342.95C146.435 346.375 152.359 348.272 158.454 348.412C164.549 348.553 170.554 346.931 175.75 343.742L333.292 246.842C337.885 244.009 341.677 240.049 344.31 235.338C346.942 230.627 348.327 225.321 348.333 219.925V127.617C348.341 122.43 347.075 117.32 344.645 112.737C342.216 108.154 338.697 104.238 334.4 101.333Z" stroke="#DB8B0A" stroke-width="20" stroke-linecap="round" stroke-linejoin="round"/>
<path d="M158.334 136.667C165.124 136.667 170.886 138.743 174.725 141.623C178.561 144.5 180 147.712 180 150.417C180 153.122 178.561 156.333 174.725 159.211C170.886 162.09 165.124 164.167 158.334 164.167C151.544 164.167 145.781 162.09 141.942 159.211C138.106 156.333 136.667 153.122 136.667 150.417C136.667 147.712 138.106 144.5 141.942 141.623C145.781 138.743 151.544 136.667 158.334 136.667Z" stroke="#DB8B0A" stroke-width="20"/>
<path d="M237.5 89.1667C244.29 89.1667 250.053 91.2432 253.892 94.1227C257.728 96.9999 259.166 100.212 259.166 102.917C259.166 105.622 257.728 108.833 253.892 111.711C250.053 114.59 244.29 116.667 237.5 116.667C230.711 116.667 224.948 114.59 221.109 111.711C217.272 108.833 215.833 105.622 215.833 102.917C215.833 100.212 217.272 96.9999 221.109 94.1227C224.948 91.2433 230.711 89.1667 237.5 89.1667Z" stroke="#DB8B0A" stroke-width="20"/>
</svg>
