<svg width="1140" height="480" viewBox="0 0 1140 480" fill="none" xmlns="http://www.w3.org/2000/svg">
<path d="M258.333 398.333V271.667M258.333 271.667L135.625 194.875M258.333 271.667L444.692 162.892M434.4 151.333L338.608 87.05C333.565 83.6248 327.641 81.7281 321.546 81.5877C315.451 81.4472 309.446 83.069 304.25 86.2583L146.708 183.158C142.115 185.991 138.323 189.951 135.69 194.662C133.058 199.373 131.673 204.679 131.667 210.075V302.225C131.659 307.412 132.925 312.522 135.355 317.105C137.784 321.688 141.303 325.604 145.6 328.508L241.392 392.95C246.435 396.375 252.359 398.272 258.454 398.412C264.549 398.553 270.554 396.931 275.75 393.742L433.292 296.842C437.885 294.009 441.677 290.049 444.31 285.338C446.942 280.627 448.327 275.321 448.333 269.925V177.617C448.341 172.43 447.075 167.32 444.645 162.737C442.216 158.154 438.697 154.238 434.4 151.333Z" stroke="#DB8B0A" stroke-width="20" stroke-linecap="round" stroke-linejoin="round"/>
<path d="M258.334 186.667C265.124 186.667 270.886 188.743 274.725 191.623C278.561 194.5 280 197.712 280 200.417C280 203.122 278.561 206.333 274.725 209.211C270.886 212.09 265.124 214.167 258.334 214.167C251.544 214.167 245.781 212.09 241.942 209.211C238.106 206.333 236.667 203.122 236.667 200.417C236.667 197.712 238.106 194.5 241.942 191.623C245.781 188.743 251.544 186.667 258.334 186.667Z" stroke="#DB8B0A" stroke-width="20"/>
<path d="M337.5 139.167C344.29 139.167 350.053 141.243 353.892 144.123C357.728 147 359.166 150.212 359.166 152.917C359.166 155.622 357.728 158.833 353.892 161.711C350.053 164.59 344.29 166.667 337.5 166.667C330.711 166.667 324.948 164.59 321.109 161.711C317.272 158.833 315.833 155.622 315.833 152.917C315.833 150.212 317.272 147 321.109 144.123C324.948 141.243 330.711 139.167 337.5 139.167Z" stroke="#DB8B0A" stroke-width="20"/>
<path d="M600.6 270.4C600.6 279.8 597.3 287.8 590.7 294.4C584.3 300.8 576.5 304 567.3 304H525.6C516.4 304 508.5 300.8 501.9 294.4C495.3 287.8 492 279.8 492 270.4V115C492 111 493.3 107.7 495.9 105.1C498.7 102.5 502 101.2 505.8 101.2H514.2C518 101.2 521.2 102.5 523.8 105.1C526.4 107.7 527.7 111 527.7 115V145C527.7 146 528.1 146.9 528.9 147.7C529.9 148.3 530.9 148.6 531.9 148.6H567.3C573.5 148.6 579.1 150.1 584.1 153.1C589.1 156.1 593.1 160.2 596.1 165.4C599.1 170.4 600.6 176 600.6 182.2V270.4ZM565.2 264.7V188.5C565.2 185.7 563.8 184.3 561 184.3H531.9C530.9 184.3 529.9 184.7 528.9 185.5C528.1 186.3 527.7 187.3 527.7 188.5V264.7C527.7 265.7 528.1 266.6 528.9 267.4C529.9 268.2 530.9 268.6 531.9 268.6H561C563.8 268.6 565.2 267.3 565.2 264.7ZM714.108 170.8C714.108 174.6 712.808 177.8 710.208 180.4C707.608 183 704.408 184.3 700.608 184.3H664.908C662.308 184.3 661.008 185.7 661.008 188.5V290.2C661.008 294 659.608 297.3 656.808 300.1C654.208 302.7 651.008 304 647.208 304H638.808C635.008 304 631.808 302.7 629.208 300.1C626.608 297.3 625.308 294 625.308 290.2V182.2C625.308 176 626.808 170.4 629.808 165.4C632.808 160.2 636.808 156.1 641.808 153.1C646.808 150.1 652.408 148.6 658.608 148.6H700.608C704.408 148.6 707.608 150 710.208 152.8C712.808 155.4 714.108 158.7 714.108 162.7V170.8ZM783.687 120.4C783.687 126.6 781.387 132 776.787 136.6C772.387 141 767.187 143.2 761.187 143.2C754.987 143.2 749.587 141 744.987 136.6C740.587 132 738.387 126.6 738.387 120.4C738.387 114.4 740.587 109.2 744.987 104.8C749.587 100.2 754.987 97.9 761.187 97.9C767.187 97.9 772.387 100.2 776.787 104.8C781.387 109.2 783.687 114.4 783.687 120.4ZM778.887 290.2C778.887 294 777.487 297.3 774.687 300.1C772.087 302.7 768.887 304 765.087 304H756.987C753.187 304 749.887 302.7 747.087 300.1C744.487 297.3 743.187 294 743.187 290.2V165.7C743.187 161.9 744.487 158.7 747.087 156.1C749.887 153.3 753.187 151.9 756.987 151.9H765.087C768.887 151.9 772.087 153.3 774.687 156.1C777.487 158.7 778.887 161.9 778.887 165.7V290.2ZM916.42 270.4C916.42 279.8 913.12 287.8 906.52 294.4C900.12 300.8 892.32 304 883.12 304H841.42C832.22 304 824.32 300.8 817.72 294.4C811.12 287.8 807.82 279.8 807.82 270.4V182.2C807.82 176 809.32 170.4 812.32 165.4C815.52 160.2 819.62 156.1 824.62 153.1C829.62 150.1 835.22 148.6 841.42 148.6H883.12C889.32 148.6 894.92 150.1 899.92 153.1C904.92 156.1 908.92 160.2 911.92 165.4C914.92 170.4 916.42 176 916.42 182.2V197.8C916.42 201.6 915.12 204.9 912.52 207.7C909.92 210.3 906.72 211.6 902.92 211.6H894.52C890.72 211.6 887.52 210.3 884.92 207.7C882.32 204.9 881.02 201.6 881.02 197.8V188.5C881.02 187.3 880.52 186.3 879.52 185.5C878.72 184.7 877.82 184.3 876.82 184.3H847.72C846.72 184.3 845.72 184.7 844.72 185.5C843.92 186.3 843.52 187.3 843.52 188.5V264.7C843.52 265.7 843.92 266.6 844.72 267.4C845.72 268.2 846.72 268.6 847.72 268.6H876.82C877.82 268.6 878.72 268.2 879.52 267.4C880.52 266.6 881.02 265.7 881.02 264.7V255.4C881.02 251.6 882.32 248.4 884.92 245.8C887.52 243 890.72 241.6 894.52 241.6H902.92C906.72 241.6 909.92 243 912.52 245.8C915.12 248.4 916.42 251.6 916.42 255.4V270.4ZM1048.23 295.6C1046.03 301.2 1041.93 304 1035.93 304H1024.83C1020.83 304 1017.33 302.5 1014.33 299.5L979.228 260.8C979.028 260.4 978.528 260.3 977.728 260.5C977.128 260.7 976.828 261.2 976.828 262V290.2C976.828 294 975.428 297.3 972.628 300.1C970.028 302.7 966.828 304 963.028 304H954.628C950.828 304 947.528 302.7 944.728 300.1C942.128 297.3 940.828 294 940.828 290.2V115C940.828 111 942.128 107.7 944.728 105.1C947.528 102.5 950.828 101.2 954.628 101.2H963.028C966.828 101.2 970.028 102.5 972.628 105.1C975.428 107.7 976.828 111 976.828 115V190.9C976.828 191.5 977.128 192 977.728 192.4C978.528 192.6 979.028 192.4 979.228 191.8L1011.03 157.3C1013.63 154.3 1016.93 152.8 1020.93 152.8H1032.03C1037.83 152.8 1042.03 155.6 1044.63 161.2C1045.63 163.6 1045.93 166.2 1045.53 169C1045.13 171.6 1044.03 173.8 1042.23 175.6L998.728 223.6C997.928 224.4 997.528 225.4 997.528 226.6C997.528 227.6 997.928 228.4 998.728 229L1045.83 280.9C1047.63 282.9 1048.73 285.3 1049.13 288.1C1049.73 290.7 1049.43 293.2 1048.23 295.6Z" fill="#DB8B0A"/>
</svg>
